<svg xmlns="http://www.w3.org/2000/svg" viewBox="0 0 156 21"><path d="M106.9 10.1c0 5-3.1 8.3-6.8 8.3-4.9 0-8.1-3.5-8.1-9 0-4.9 3.3-8.2 6.8-8.2 5.3.1 8.1 4.4 8.1 8.9m-48.1 9.5c.3 0 .6-.1.6-.6l.1-2.7V3.8c0-1.2.5-2.5 1.9-2.5.3 0 .3-.6 0-.6l-1.6.1H58L55.3.7c-.2 0-.3.6 0 .6 1.9 0 2.4 1.3 2.4 2.5v11.1L48 4.7 44.6.8c-.2-.2-.4-.3-.7-.1-.3.2-.2.5-.2.6v15.1c0 1.2-.5 2.5-1.9 2.5-.3 0-.3.6 0 .6l1.6-.1h1.7l2.7.1c.2 0 .3-.6 0-.6-1.9 0-2.4-1.3-2.4-2.5V6l10.3 10.9 2.5 2.6.6.1m-25.7 0c.2 0 .3-.6 0-.6-1.7 0-2.1-1.3-2.1-2.5V3.7c0-1.4.5-2.5 1.6-2.5.3 0 .3-.6 0-.6l-1.9.1h-2.3L26.5.6c-.2 0-.3.6 0 .6 1.1 0 1.6 1 1.6 2.5v12.9c0 1.2-.5 2.5-2.1 2.5-.3 0-.3.6 0 .6l2.4-.1H33.1zm-16.2.4c1 0 1.6-.2 2.4-.6.1-.1.1-.5-.2-.5h-.2c-1.4 0-3.5-1.6-4.8-3L7.2 9l5-5c2-2 2.9-2.5 4.6-2.8.3-.1.3-.6 0-.6l-2.4.1h-.8L11.8.6c-.3 0-.4.1-.4.2 0 .3.4.4.4 1 0 .3-.1.6-.7 1.2L5.2 8.6v-5c0-1.2.5-2.5 2.1-2.5.3 0 .3-.6 0-.6L4.9.6H2.6L.2.5c-.2 0-.3.6 0 .6 1.7 0 2.1 1.3 2.1 2.5v12.9c0 1.2-.5 2.5-2.1 2.5-.3 0-.3.6 0 .6l2.4-.1h2.3l2.4.1c.2 0 .3-.6 0-.6-1.7 0-2.1-1.3-2.1-2.5v-5.8l6.4 6.7c2.2 2.3 3.7 2.6 5.3 2.6m60.5-.4c.2 0 .3-.6 0-.6-2.2 0-2.4-1.3-2.4-2.5v-6.3l2.5-.1c2.2-.1 2.7.3 2.8 1.8 0 .2.2.3.4.3s.3-.1.3-.3l.1-2.2.3-2.3c0-.2-.6-.3-.6-.1-.1 1-.8 1.5-1.7 1.5H75V2.2l3.2-.2c2.1-.2 2.7.3 2.8 2 0 .2.2.3.4.3s.3-.1.3-.3l.1-2L82 .6c0-.2-.3-.2-.4-.2L80 .6h-7.6L70 .5c-.2 0-.3.6 0 .6 1.7 0 2.1 1.3 2.1 2.5v12.9c0 1.2-.5 2.5-2.1 2.5-.3 0-.3.6 0 .6l2.4-.1h2.3l2.7.1zm76.1.4c1 0 1.6-.2 2.4-.6.1-.1.1-.5-.2-.5h-.2c-1.4 0-3.5-1.6-4.8-3l-6.9-7 4.4-4.4c2.5-2.5 3.2-3.1 5.5-3.5.3-.1.3-.6 0-.6l-2.7.2h-.8l-1.8-.1c-.3 0-.4.1-.4.2 0 .3.4.4.4 1 0 .3-.1.6-.7 1.2l-5.8 5.7v-5c0-1.2.5-2.5 2.1-2.5.3 0 .3-.6 0-.6l-2.4.1h-2.3l-2.4-.1c-.2 0-.3.6 0 .6 1.7 0 2.1 1.3 2.1 2.5v12.9c0 1.2-.5 2.5-2.1 2.5-.3 0-.3.6 0 .6l2.4-.1h2.3l2.4.1c.2 0 .3-.6 0-.6-1.7 0-2.1-1.3-2.1-2.5v-5.8l6.4 6.7c2.1 2.3 3.6 2.6 5.2 2.6m-24.4-.4l.3-4.2c0-.2-.4-.3-.5 0-.9 2-3.1 3.1-4.8 3.1-1.9 0-2.7-1-2.7-2.8V3.6c0-1.2.5-2.5 2.1-2.5.3 0 .3-.6 0-.6l-2.4.1h-2.3l-2.4-.1c-.2 0-.3.6 0 .6 1.7 0 2.1 1.3 2.1 2.5v12.9c0 1.2-.5 2.5-2.1 2.5-.3 0-.3.6 0 .6l2.4-.1h7.6l2.7.1zm-40.2-8.8c0 4.7 5.1 9.1 10.6 9.1 5 0 10.4-3.7 10.4-10.8 0-4.6-5.2-9.1-10.6-9.1-5.1 0-10.4 4.6-10.4 10.8"/></svg>